<?xml version="1.0" encoding="iso-8859-1"?>
<!-- Generator: Adobe Illustrator 19.0.0, SVG Export Plug-In . SVG Version: 6.00 Build 0)  -->
<svg version="1.1" id="Layer_1" xmlns="http://www.w3.org/2000/svg" xmlns:xlink="http://www.w3.org/1999/xlink" x="0px" y="0px"
	 viewBox="0 0 491.52 491.52" style="enable-background:new 0 0 491.52 491.52;" xml:space="preserve">
<circle style="fill:#334D5C;" cx="245.76" cy="245.76" r="245.76"/>
<path style="opacity:0.1;enable-background:new    ;" d="M377.805,138.844c-0.512-0.461-1.024-0.922-1.536-1.382
	c-0.819-0.666-1.638-1.28-2.509-1.843c-4.403-2.918-9.728-4.608-15.411-4.608c-15.616,0-28.262,12.646-28.262,28.211
	c0,6.144,1.946,11.827,5.325,16.435c0.563,0.819,1.229,1.638,1.894,2.355c0.154,0.154,0.256,0.307,0.41,0.461l15.514,15.514v6.81
	l-86.784-86.784c-0.768-0.87-1.638-1.69-2.509-2.406s-1.792-1.434-2.765-2.048c-4.403-2.918-9.728-4.608-15.411-4.608
	c-15.565,0-28.211,12.646-28.211,28.211c0,6.144,1.946,11.827,5.274,16.435c0,0,0.051,0,0.051,0.051
	c0.154,0.205,0.256,0.41,0.461,0.563c0.307,0.512,0.717,0.973,1.126,1.434c0.256,0.307,0.512,0.614,0.819,0.922
	c0.563,0.666,1.178,1.229,1.792,1.741c0.051,0.102,0.154,0.154,0.205,0.205c0.563,0.461,1.126,0.922,1.69,1.331l11.674,11.674
	v28.621h-30.874l-54.784-54.784v0.102c-0.307-0.461-0.666-0.87-1.024-1.28c-0.051-0.102-0.102-0.154-0.205-0.205
	c-0.512-0.666-1.126-1.229-1.792-1.741c-0.256-0.256-0.512-0.512-0.819-0.768c-0.819-0.614-1.638-1.28-2.509-1.843
	c-4.403-2.918-9.728-4.608-15.462-4.608c-15.565,0-28.211,12.646-28.211,28.211c0,6.144,1.946,11.827,5.325,16.435
	c0.614,0.819,1.229,1.638,1.894,2.355c0.154,0.154,0.256,0.307,0.41,0.461c0.563,0.717,1.229,1.331,1.946,1.894
	c0.051,0.102,0.154,0.154,0.205,0.205c0.666,0.563,1.331,1.126,2.048,1.587l11.264,11.264v40.09l24.474,24.474h-24.474v46.541
	c-13.107,2.406-23.091,13.926-23.091,27.75c0,0.87,0.051,1.741,0.154,2.611c0.051,1.126,0.256,2.253,0.512,3.379
	c0.102,0.717,0.307,1.382,0.512,2.048c0.051,0.256,0.154,0.512,0.256,0.819c0.256,0.717,0.512,1.434,0.819,2.15
	c0.307,0.819,0.717,1.638,1.178,2.458c0.461,0.87,1.024,1.741,1.536,2.56c0.358,0.461,0.614,0.87,0.973,1.229
	c0.307,0.461,0.666,0.922,1.075,1.331c0.307,0.358,0.614,0.717,0.973,1.024c0.717,0.768,1.485,1.485,2.304,2.15
	c0.512,0.41,1.024,0.819,1.536,1.126l136.174,136.174c130.177-3.757,234.923-108.684,238.391-238.932L379.085,140.175
	L377.805,138.844z"/>
<g>
	<polygon style="fill:#EBF0F3;" points="353.215,156.346 353.215,223.286 250.88,223.286 250.88,134.021 240.64,134.021 
		240.64,223.286 138.305,223.286 138.305,158.321 128.065,158.321 128.065,233.526 363.455,233.526 363.455,156.346 	"/>
	<polygon style="fill:#EBF0F3;" points="138.305,335.174 138.305,268.234 240.64,268.234 240.64,357.499 250.88,357.499 
		250.88,268.234 353.215,268.234 353.215,333.199 363.455,333.199 363.455,257.994 128.065,257.994 128.065,335.174 	"/>
</g>
<circle style="fill:#FCD462;" cx="133.171" cy="159.232" r="28.227"/>
<circle style="fill:#44C4A1;" cx="245.76" cy="133.171" r="28.227"/>
<circle style="fill:#27A2DB;" cx="358.333" cy="159.232" r="28.227"/>
<path style="fill:#2D93BA;" d="M373.769,135.621c3.326,4.631,5.306,10.293,5.306,16.43c0,15.589-12.637,28.226-28.226,28.226
	c-5.701,0-10.997-1.704-15.435-4.611c5.123,7.133,13.468,11.796,22.921,11.796c15.588,0,28.225-12.637,28.225-28.226
	C386.559,149.349,381.467,140.662,373.769,135.621z"/>
<path style="fill:#3EA69B;" d="M261.196,109.571c3.325,4.631,5.306,10.293,5.306,16.43c0,15.589-12.638,28.226-28.226,28.226
	c-5.702,0-10.998-1.704-15.436-4.611c5.123,7.133,13.468,11.796,22.921,11.796c15.588,0,28.226-12.637,28.226-28.226
	C273.986,123.299,268.893,114.612,261.196,109.571z"/>
<path style="fill:#F6C358;" d="M148.621,135.621c3.326,4.631,5.306,10.293,5.306,16.43c0,15.589-12.637,28.226-28.226,28.226
	c-5.701,0-10.997-1.704-15.435-4.611c5.123,7.133,13.468,11.796,22.92,11.796c15.589,0,28.226-12.637,28.226-28.226
	C161.412,149.349,156.318,140.662,148.621,135.621z"/>
<circle style="fill:#FCD462;" cx="358.333" cy="332.283" r="28.227"/>
<circle style="fill:#44C4A1;" cx="245.76" cy="358.333" r="28.227"/>
<circle style="fill:#27A2DB;" cx="133.171" cy="332.283" r="28.227"/>
<path style="fill:#2D93BA;" d="M117.751,355.899c-3.326-4.631-5.306-10.293-5.306-16.43c0-15.589,12.637-28.226,28.226-28.226
	c5.701,0,10.997,1.704,15.435,4.611c-5.123-7.133-13.468-11.796-22.92-11.796c-15.589,0-28.226,12.637-28.226,28.226
	C104.96,342.171,110.054,350.858,117.751,355.899z"/>
<path style="fill:#3EA69B;" d="M230.324,381.949c-3.325-4.631-5.305-10.293-5.305-16.43c0-15.589,12.637-28.226,28.225-28.226
	c5.702,0,10.998,1.704,15.436,4.611c-5.123-7.133-13.468-11.796-22.921-11.796c-15.588,0-28.226,12.637-28.226,28.226
	C217.534,368.221,222.627,376.908,230.324,381.949z"/>
<path style="fill:#F6C358;" d="M342.899,355.899c-3.326-4.631-5.306-10.293-5.306-16.43c0-15.589,12.637-28.226,28.226-28.226
	c5.701,0,10.998,1.704,15.435,4.611c-5.123-7.133-13.468-11.796-22.92-11.796c-15.589,0-28.226,12.637-28.226,28.226
	C330.108,342.171,335.202,350.858,342.899,355.899z"/>
<rect x="156.667" y="206.336" style="fill:#D15241;" width="178.186" height="89.047"/>
<rect x="156.667" y="196.096" style="fill:#E56353;" width="178.186" height="89.047"/>
<g>
	<path style="fill:#CE412D;" d="M188.209,227.95c-2.661,0-4.844,0.542-6.547,1.627c-1.71,1.085-2.561,2.725-2.561,4.926
		c0,2.195,0.851,3.873,2.561,5.033c1.703,1.167,5.33,2.416,10.887,3.759c5.551,1.344,9.739,3.23,12.558,5.658
		c2.813,2.428,4.22,6.011,4.22,10.736c0,4.73-1.779,8.566-5.349,11.511c-3.564,2.946-8.238,4.415-14.028,4.415
		c-8.472,0-15.99-2.914-22.55-8.755l5.734-6.901c5.475,4.756,11.158,7.134,17.049,7.134c2.946,0,5.286-0.637,7.014-1.898
		c1.735-1.268,2.598-2.946,2.598-5.04s-0.814-3.721-2.441-4.882c-1.628-1.167-4.434-2.22-8.408-3.179
		c-3.98-0.959-7.008-1.836-9.071-2.637c-2.069-0.801-3.905-1.848-5.507-3.141c-3.204-2.428-4.8-6.143-4.8-11.158
		c0-5.015,1.817-8.875,5.463-11.587c3.639-2.712,8.149-4.068,13.523-4.068c3.463,0,6.901,0.568,10.307,1.703
		c3.412,1.136,6.358,2.738,8.837,4.807l-4.882,6.9c-1.602-1.45-3.772-2.636-6.509-3.57
		C193.571,228.416,190.871,227.95,188.209,227.95z"/>
	<path style="fill:#CE412D;" d="M258.697,220.822v8.604h-28.908v14.337h25.962v8.137h-25.962v14.495h29.841v8.604h-38.987v-54.176
		H258.697z"/>
	<path style="fill:#CE412D;" d="M315.9,267.517c-5.475,5.349-12.243,8.024-20.304,8.024c-8.061,0-14.829-2.675-20.304-8.024
		c-5.482-5.349-8.219-12.009-8.219-19.995c0-7.985,2.737-14.652,8.219-19.995c5.475-5.349,12.243-8.023,20.304-8.023
		c8.061,0,14.829,2.674,20.304,8.023c5.481,5.343,8.219,12.01,8.219,19.995C324.119,255.507,321.382,262.168,315.9,267.517z
		 M309.202,233.607c-3.696-3.822-8.231-5.733-13.605-5.733c-5.374,0-9.909,1.911-13.605,5.733c-3.69,3.829-5.538,8.465-5.538,13.915
		s1.848,10.086,5.538,13.915c3.696,3.823,8.231,5.734,13.605,5.734c5.374,0,9.909-1.911,13.605-5.734
		c3.69-3.829,5.538-8.465,5.538-13.915S312.892,237.436,309.202,233.607z"/>
</g>
<g>
	<path style="fill:#FCD462;" d="M188.209,224.35c-2.661,0-4.844,0.543-6.547,1.628c-1.71,1.085-2.561,2.725-2.561,4.926
		c0,2.195,0.851,3.873,2.561,5.033c1.703,1.167,5.33,2.416,10.887,3.76c5.551,1.343,9.739,3.229,12.558,5.658
		c2.813,2.428,4.22,6.011,4.22,10.736c0,4.731-1.779,8.566-5.349,11.511c-3.564,2.946-8.238,4.415-14.028,4.415
		c-8.472,0-15.99-2.914-22.55-8.755l5.734-6.901c5.475,4.756,11.158,7.134,17.049,7.134c2.946,0,5.286-0.637,7.014-1.898
		c1.735-1.268,2.598-2.946,2.598-5.04c0-2.094-0.814-3.722-2.441-4.882c-1.628-1.167-4.434-2.221-8.408-3.18
		c-3.98-0.958-7.008-1.835-9.071-2.636c-2.069-0.801-3.905-1.848-5.507-3.141c-3.204-2.428-4.8-6.144-4.8-11.159
		c0-5.015,1.817-8.874,5.463-11.587c3.639-2.712,8.149-4.068,13.523-4.068c3.463,0,6.901,0.568,10.307,1.703
		c3.412,1.135,6.358,2.737,8.837,4.806l-4.882,6.901c-1.602-1.451-3.772-2.637-6.509-3.57
		C193.571,224.817,190.871,224.35,188.209,224.35z"/>
	<path style="fill:#FCD462;" d="M258.697,217.222v8.604h-28.908v14.337h25.962v8.137h-25.962v14.495h29.841v8.604h-38.987v-54.176
		H258.697z"/>
	<path style="fill:#FCD462;" d="M315.9,263.918c-5.475,5.349-12.243,8.023-20.304,8.023c-8.061,0-14.829-2.674-20.304-8.023
		c-5.482-5.349-8.219-12.01-8.219-19.995c0-7.986,2.737-14.653,8.219-19.995c5.475-5.349,12.243-8.024,20.304-8.024
		c8.061,0,14.829,2.675,20.304,8.024c5.481,5.342,8.219,12.009,8.219,19.995C324.119,251.908,321.382,258.569,315.9,263.918z
		 M309.202,230.008c-3.696-3.823-8.231-5.734-13.605-5.734c-5.374,0-9.909,1.911-13.605,5.734c-3.69,3.829-5.538,8.465-5.538,13.915
		c0,5.45,1.848,10.086,5.538,13.915c3.696,3.822,8.231,5.733,13.605,5.733c5.374,0,9.909-1.911,13.605-5.733
		c3.69-3.829,5.538-8.465,5.538-13.915C314.74,238.473,312.892,233.837,309.202,230.008z"/>
</g>
<g>
</g>
<g>
</g>
<g>
</g>
<g>
</g>
<g>
</g>
<g>
</g>
<g>
</g>
<g>
</g>
<g>
</g>
<g>
</g>
<g>
</g>
<g>
</g>
<g>
</g>
<g>
</g>
<g>
</g>
</svg>
