<svg enable-background="new 0 0 140 140" height="512" viewBox="0 0 140 140" width="512" xmlns="http://www.w3.org/2000/svg"><circle cx="70" cy="70" fill="#344e5c" r="64"/><path d="m133.5999756 62.9399414c.2600098 2.3200684.4000244 4.670044.4000244 7.0600586 0 35.3499756-28.6500244 64-64 64-3.4899902 0-6.9199829-.2900391-10.2600098-.8300781l-32.0499878-32.0499268 4.6699829-7.5100098-13.3099975-13.3099365v-17.8100586l9.0800171-2.0900879c1.0100098-3.8398438 2.539978-7.4799805 4.4899902-10.8199463l-4.9299927-7.9100342 12.5900269-12.5998535 7.8999634 4.9499512c3.3599853-1.9599609 6.9799804-3.4799804 10.8200073-4.4899902l2.0999756-9.0800781h17.8000488l12.9400024 12.9400635 7.8899536-4.3199463z" opacity=".1"/><path d="m70.005661 101.2692337c-16.5042 0-29.8770409-13.3842926-29.8770409-29.8769684 0-16.5042648 13.3728409-29.877243 29.8770409-29.877243 16.4928131 0 29.865715 13.3729782 29.865715 29.877243 0 16.4926758-13.3729019 29.8769684-29.865715 29.8769684z" fill="#467080"/><path d="m120.9455185 80.2961655v-17.8077965l-9.0774612-2.0933228c-1.0085983-3.8392563-2.5377502-7.4722519-4.4899445-10.8126717l4.934639-7.9170761-12.5805207-12.591175-7.9170074 4.9454918c-3.3512115-1.9630508-6.9734802-3.4815426-10.8126755-4.4900761l-2.103981-9.0775928h-17.7970695l-2.103981 9.0775928c-3.8391914 1.0085335-7.4615288 2.5270252-10.8126717 4.4900761l-7.9062195-4.9454918-12.5913086 12.5911751 4.9345703 7.9170761c-1.9521294 3.3404198-3.4812794 6.9734154-4.4898777 10.8126717l-9.0775261 2.0933228v17.8077965l9.0775261 2.0930557c1.0085983 3.8392563 2.5377483 7.4722519 4.4898777 10.8126755l-4.9345703 7.9170761 12.5913086 12.5914383 7.9062195-4.9454956c3.3511429 1.9630585 6.9734802 3.4812851 10.8126717 4.4898148l2.103981 9.0775909h17.7970695l2.103981-9.0775909c3.8391953-1.0085297 7.4614639-2.5267563 10.8126755-4.4898148l7.9170074 4.9454956 12.5805206-12.5914383-4.934639-7.9170761c1.9521942-3.3404236 3.4813461-6.9734192 4.4899445-10.8126755zm-50.9400559 17.4063949c-14.53265 0-26.3105621-11.7777786-26.3105621-26.3102951 0-14.5327759 11.7779121-26.3105583 26.3105621-26.3105583 14.5217896 0 26.2997055 11.7777824 26.2997055 26.3105583.0000001 14.5325165-11.7779159 26.3102951-26.2997055 26.3102951z" fill="#b0b1b5"/><path d="m70.0056915 36.609169c-19.2171707 0-34.7830963 15.5769691-34.7830963 34.7830963 0 19.2058563 15.5659256 34.7830963 34.7830963 34.7830963 19.2058563 0 34.7717819-15.57724 34.7717819-34.7830963 0-19.2061271-15.5659255-34.7830963-34.7717819-34.7830963zm0 64.6600647c-16.5042 0-29.877037-13.3842926-29.877037-29.8769684 0-16.5042648 13.3728371-29.877243 29.877037-29.877243 16.4928131 0 29.8657227 13.3729782 29.8657227 29.877243 0 16.4926758-13.3729096 29.8769684-29.8657227 29.8769684z" fill="#dad7dc"/><path d="m71.0573273 57.2283783c1.8212662.1339493 3.542778.611927 5.1089249 1.3686447l4.0796738-7.0664673c-2.7751617-1.4352303-5.8877106-2.2926025-9.1885986-2.4466782v8.1445008z" fill="#e7a04e"/><path d="m68.9430618 57.2286377v-8.1445045c-3.3012085.1553688-6.4136963 1.0127411-9.1884079 2.4477119l4.0794792 7.0659523c1.566021-.7564583 3.2874718-1.2344399 5.1089287-1.3691597z" fill="#4388b9"/><path d="m58.253418 63.3897285c1.0029984-1.4700737 2.2740822-2.7411575 3.7436409-3.744606l-4.0721207-7.0533066c-2.6956749 1.7356453-4.9892426 4.0297966-6.7239838 6.7260475z" fill="#509fd7"/><path d="m81.7469025 63.3897285 7.0525284-4.0718651c-1.7348709-2.6967659-4.0284348-4.9914322-6.7238541-6.7270775l-4.0723114 7.0535622c1.46949 1.0034485 2.7405777 2.2750512 3.7436371 3.7453804z" fill="#d49145"/><path d="m84.1608047 72.4496689c-.1343307 1.8210754-.6118622 3.5420151-1.3676758 5.1080933l7.0653076 4.0790939c1.4336853-2.7744522 2.290535-5.8864899 2.4452591-9.1871872z" fill="#41a28d"/><path d="m82.793457 65.2273178c.7557449 1.5658264 1.233078 3.2870178 1.3673477 5.1080933h8.1428909c-.1545944-3.3006973-1.0113831-6.4127312-2.4449387-9.187439z" fill="#4abaa4"/><path d="m55.8391304 70.3354111c.1342697-1.8210754.6117325-3.5425262 1.3675461-5.1083527l-7.0651779-4.0790863c-1.4338112 2.7747078-2.2905998 5.8867416-2.4451942 9.187439z" fill="#b0b1b5"/><path d="m57.2069969 77.5577621c-.7559395-1.5658264-1.233532-3.2870178-1.3678665-5.1080933h-8.1428261c.1547241 3.3006973 1.0115776 6.412735 2.4455185 9.1871872z" fill="#dad7dc"/><path d="m62.7046738 64.0268784s4.3938599 8.9677048 5.656929 10.2307663c1.2632675 1.2632675 3.3107224 1.2632217 4.5738907.0000534 1.2622147-1.2622147 1.2622604-3.3096695-.0010071-4.572937-1.2630615-1.2630692-10.2298126-5.6578827-10.2298126-5.6578827zm9.1884994 9.1889038c-.6875687.6875687-1.8019867.6876221-2.4896545-.0000534-.6874695-.6874695-.6876221-1.8020859-.0000534-2.4896545.6870728-.6870728 1.8016891-.6869202 2.4891586.0005493.6876755.6876754.6876221 1.8020858.0005493 2.4891586z" fill="#e6e7e8"/></svg>