<?xml version="1.0" encoding="iso-8859-1"?>
<!-- Generator: Adobe Illustrator 19.0.0, SVG Export Plug-In . SVG Version: 6.00 Build 0)  -->
<svg version="1.1" id="Capa_1" xmlns="http://www.w3.org/2000/svg" xmlns:xlink="http://www.w3.org/1999/xlink" x="0px" y="0px"
	 viewBox="0 0 491.52 491.52" style="enable-background:new 0 0 491.52 491.52;" xml:space="preserve">
<circle style="fill:#E05B49;" cx="245.76" cy="245.76" r="245.76"/>
<path style="fill:#EBF0F3;" d="M240.185,300.446c-2.145-1.67-3.549-4.247-3.549-7.176c0-2.929,1.404-5.506,3.549-7.176v-11.76
	H120.32V120.321H371.2v148.646h10.575c1.744,0,3.36,0.492,4.785,1.287V110.209c0-2.898-2.349-5.249-5.248-5.249H110.208
	c-2.899,0-5.248,2.35-5.248,5.249V309.83c0,2.899,2.35,5.249,5.248,5.249h83.434h46.542V300.446z"/>
<path style="fill:#64798A;" d="M251.3,240.639h91.83c6.125,0,11.11,4.985,11.11,11.113v17.215h16.96V120.321H120.32v154.014h119.865
	v-22.583C240.185,245.624,245.17,240.639,251.3,240.639z"/>
<polygon style="fill:#3A556A;" points="240.185,332.913 193.642,347.3 240.185,347.3 "/>
<polygon style="fill:#2F4859;" points="240.185,315.078 193.642,315.078 193.642,347.3 240.185,332.913 "/>
<g>
	<polygon style="fill:#64798A;" points="193.642,347.3 182.942,347.3 182.942,360.789 240.185,360.789 240.185,347.3 	"/>
	<path style="fill:#64798A;" d="M236.636,293.27c0,2.929,1.404,5.506,3.549,7.176v-14.351
		C238.039,287.764,236.636,290.341,236.636,293.27z"/>
</g>
<path style="fill:#E1E6E9;" d="M371.2,268.967v5.368H240.185v11.76c1.546-1.203,3.465-1.949,5.575-1.949
	c5.04,0,9.125,4.085,9.125,9.124c0,5.04-4.085,9.125-9.125,9.125c-2.11,0-4.029-0.746-5.575-1.949v14.632h57.693h83.435
	c2.898,0,5.248-2.35,5.248-5.249v-39.576c-1.425-0.795-3.041-1.287-4.785-1.287H371.2z"/>
<path style="fill:#2F4859;" d="M371.2,268.967h-16.96v-17.215c0-6.128-4.985-11.113-11.11-11.113H251.3
	c-6.13,0-11.115,4.985-11.115,11.113v22.583H371.2V268.967z"/>
<g>
	<polygon style="fill:#3A556A;" points="240.185,347.3 297.878,347.3 297.878,315.078 240.185,332.913 	"/>
	<polygon style="fill:#3A556A;" points="240.185,332.913 297.878,315.078 240.185,315.078 	"/>
	<polygon style="fill:#3A556A;" points="308.578,347.3 297.878,347.3 240.185,347.3 240.185,360.789 308.578,360.789 	"/>
	<path style="fill:#3A556A;" d="M254.885,293.27c0-5.039-4.085-9.124-9.125-9.124c-2.11,0-4.029,0.746-5.575,1.949v14.351
		c1.546,1.203,3.465,1.949,5.575,1.949C250.8,302.395,254.885,298.31,254.885,293.27z"/>
</g>
<path style="fill:#27A2DB;" d="M310.783,361.35h-52.656v-102.77h78.172v10.387h12.822v-17.215c0-3.309-2.683-5.991-5.992-5.991
	h-91.832c-3.309,0-5.991,2.682-5.991,5.991v128.818c0,3.309,2.682,5.991,5.991,5.991h60.772c-0.795-1.425-1.286-3.041-1.286-4.786
	V361.35z"/>
<g>
	<path style="fill:#EBF0F3;" d="M297.211,381.727c-3.95,0-7.161-3.211-7.161-7.16c0-3.95,3.211-7.164,7.161-7.164
		c3.949,0,7.167,3.214,7.167,7.164C304.378,378.516,301.16,381.727,297.211,381.727z M297.211,372.21
		c-1.296,0-2.354,1.058-2.354,2.357s1.058,2.354,2.354,2.354c1.302,0,2.36-1.055,2.36-2.354S298.513,372.21,297.211,372.21z"/>
	<path style="fill:#EBF0F3;" d="M258.128,258.579v102.77h52.656v-82.478c0-5.463,4.44-9.905,9.9-9.905h15.616v-10.387H258.128z"/>
</g>
<path style="fill:#2D93BA;" d="M349.121,380.569V268.967h-12.822v92.383h-25.516v20.425c0,1.744,0.492,3.36,1.286,4.786h31.059
	C346.438,386.56,349.121,383.878,349.121,380.569z"/>
<path style="fill:#E1E6E9;" d="M310.783,278.872v82.478h25.516v-92.383h-15.616C315.223,268.967,310.783,273.409,310.783,278.872z"
	/>
<path style="fill:#FCD462;" d="M381.774,274.086h-61.087c-2.642,0-4.785,2.143-4.785,4.786v102.902c0,2.643,2.143,4.786,4.785,4.786
	h61.087c2.643,0,4.786-2.143,4.786-4.786V278.873C386.56,276.229,384.417,274.086,381.774,274.086z"/>
<g>
	<rect x="326.144" y="284.314" style="fill:#64798A;" width="50.176" height="82.074"/>
	<path style="fill:#64798A;" d="M351.228,382.699c-3.155,0-5.72-2.565-5.72-5.72c0-3.155,2.565-5.723,5.72-5.723
		c3.155,0,5.725,2.567,5.725,5.723C356.953,380.134,354.383,382.699,351.228,382.699z M351.228,375.097
		c-1.035,0-1.88,0.845-1.88,1.883c0,1.037,0.845,1.88,1.88,1.88c1.04,0,1.885-0.842,1.885-1.88
		C353.113,375.942,352.268,375.097,351.228,375.097z"/>
</g>
<g>
</g>
<g>
</g>
<g>
</g>
<g>
</g>
<g>
</g>
<g>
</g>
<g>
</g>
<g>
</g>
<g>
</g>
<g>
</g>
<g>
</g>
<g>
</g>
<g>
</g>
<g>
</g>
<g>
</g>
</svg>
