<svg enable-background="new 0 0 140 140" height="512" viewBox="0 0 140 140" width="512" xmlns="http://www.w3.org/2000/svg"><circle cx="70" cy="70" fill="#509fd7" r="64"/><path d="m133.6300049 63.1298828c.2399902 2.2602539.3699951 4.5500488.3699951 6.8701172 0 35.3500977-28.6500244 64-64 64-2.4299927 0-4.8099976-.1499023-7.1699829-.4101562l-28.210022-28.2099609.0100098-.0097656c-1.0700073-1.0800781-1.7399902-2.5700684-1.7399902-4.2202148v-62.2099611c0-3.3198242 2.6900024-6 6-6h62.2199707c2.0700073 0 3.9000244 1.0500488 4.9800415 2.6499023z" opacity=".1"/><path d="m107.1070557 48.666214v-9.7305489c0-3.3137207-2.6862793-6-6-6h-62.2141114c-3.3137207 0-6 2.6862793-6 6v9.7305489z" fill="#32796b"/><path d="m32.8929443 101.1497726c0 3.3137207 2.6862793 6 6 6h62.2141113c3.3137207 0 6-2.6862793 6-6v-54.0860137h-74.2141113z" fill="#e6e7e8"/><circle cx="40.519" cy="40.801" fill="#f1622a" r="2.798"/><circle cx="50.032" cy="40.801" fill="#d6b24e" r="2.798"/><circle cx="59.545" cy="40.801" fill="#ffd25a" r="2.798"/><path d="m78.7634201 67.6001968 4.4262314-1.5496979v-6.1167908c-3.8811188-2.2456436-8.3831787-3.537487-13.189621-3.537487v8.8425102c3.1958084.0000001 6.1828613.8681413 8.7633896 2.3614655z" fill="#d6b251"/><path d="m87.5404053 82.7788315 4.5118256 3.0302963 4.3303452-3.0302963c0-4.8064423-1.2917099-9.3085022-3.5373535-13.1894226l-7.6664886 4.4261017c1.4933241 2.5804596 2.3616713 5.5676498 2.3616713 8.7633209z" fill="#dc594e"/><path d="m85.1787338 91.5424118 7.6664886 4.4261017c2.2456436-3.8811874 3.5373535-8.3832474 3.5373535-13.189682h-8.8421707c.0000001 3.1959381-.8684158 6.1831283-2.3616714 8.7635803z" fill="#cd5148"/><path d="m61.2365837 67.6001968v-4.9556351l-4.4262352-2.7108536c-4.0032768 2.3164864-7.3391495 5.6522217-9.6555672 9.6557007l7.6665535 4.4261017c1.5399247-2.6609954 3.7542534-4.875389 6.4152489-6.4153137z" fill="#509fd7"/><path d="m52.4596634 82.7788315-4.8467865-1.9344177-3.9954491 1.9344177c0 4.8064346 1.2917099 9.3084946 3.5373535 13.189682l7.6664848-4.4261017c-1.4932555-2.5807266-2.3616027-5.5676422-2.3616027-8.7635803z" fill="#fdd96f"/><path d="m54.8213348 74.0155106-7.6665535-4.4261017c-2.2456436 3.8809204-3.5373535 8.3829803-3.5373535 13.1894226h8.8422356c0-3.1956711.8684158-6.1828613 2.3616714-8.7633209z" fill="#ffd25a"/><path d="m70.0000305 65.2387314v-8.8425102c-4.8065033 0-9.3085632 1.2918434-13.189682 3.537487l4.4262352 7.6664886c2.5805245-1.4930572 5.5675774-2.3614654 8.7634468-2.3614654z" fill="#4388b9"/><path d="m85.1787338 74.0155106 7.6664886-4.4261017c-2.3164215-4.003479-5.6522903-7.3392143-9.655571-9.6557007l-4.4262314 7.6664886c2.660988 1.5399247 4.8754579 3.7543183 6.4153138 6.4153138z" fill="#ba9a43"/><path d="m69.2149887 81.2489548c-1.4658661.5690536-2.1928787 2.2186813-1.6238327 3.6845474.5690536 1.4658737 2.218689 2.1928864 3.6845551 1.6238327s18.8537064-10.3732147 18.8537064-10.3732147-19.4485627 4.4957809-20.9144288 5.0648346z" fill="#32796b"/><circle cx="70" cy="84.061" fill="#aa975d" r="3.216"/><circle cx="70" cy="84.061" fill="#e6e7e8" r="1.748"/></svg>